<svg width="64" height="61" viewBox="0 0 64 61" fill="none" xmlns="http://www.w3.org/2000/svg">
<circle cx="30.079" cy="30.8333" r="30" fill="#8BC883"/>
<mask id="mask0_0_10" style="mask-type:alpha" maskUnits="userSpaceOnUse" x="0" y="0" width="61" height="61">
<circle cx="30.079" cy="30.8333" r="30" fill="#8BC883"/>
</mask>
<g mask="url(#mask0_0_10)">
<rect x="-3.30365" y="0.833313" width="20.9678" height="63.2637" fill="#46C036"/>
</g>
<path d="M61.0878 11.7054C62.6501 13.2675 62.6502 15.8003 61.088 17.3625L32.2646 46.1859C30.7025 47.748 28.1699 47.748 26.6078 46.1859L11.1713 30.7494C9.60916 29.1873 9.60916 26.6547 11.1713 25.0926L12.7856 23.4783C14.3476 21.9162 16.8802 21.9162 18.4423 23.4782L26.6068 31.642C28.1688 33.2039 30.7013 33.2039 32.2634 31.642L53.8163 10.0908C55.3784 8.5289 57.9108 8.52885 59.4728 10.0907L61.0878 11.7054Z" fill="white"/>
</svg>
