<svg width="862" height="371" viewBox="0 0 862 371" fill="none" xmlns="http://www.w3.org/2000/svg">
<path d="M185.172 83.2377C173.734 93.9488 175.824 102.08 174.884 110.759C174.836 111.207 175.083 111.639 175.5 111.812L189.411 117.593C190.07 117.867 190.792 117.386 190.783 116.673C190.727 112.083 190.541 104.233 192.042 99.8813C193.71 95.0425 196.674 91.3201 199.534 89.1445C200.248 88.6018 200.114 87.3652 199.258 87.0984L186.149 83.0123C185.809 82.9064 185.431 82.9944 185.172 83.2377Z" fill="#D59AFF"/>
<path d="M681.518 118.565C692.956 129.276 690.866 137.407 691.806 146.085C691.855 146.534 691.607 146.966 691.19 147.139L677.279 152.92C676.62 153.194 675.898 152.713 675.907 152C675.964 147.41 676.149 139.56 674.648 135.208C672.98 130.369 670.016 126.647 667.156 124.471C666.442 123.929 666.576 122.692 667.432 122.425L680.542 118.339C680.881 118.233 681.259 118.321 681.518 118.565Z" fill="#D59AFF"/>
<path d="M339.511 2.16806C341.102 18.7371 354.191 18.3085 356.691 20.9199C356.949 21.1895 356.864 21.5979 356.616 21.8766L347.151 32.5067C346.875 32.8167 346.437 32.9231 346.045 32.7849C342.79 31.6354 338.585 30.6256 333.823 24.9185C329.834 20.1382 328.484 17.5721 327.535 9.60904C327.492 9.25301 327.646 8.89926 327.935 8.68723L337.87 1.40186C338.515 0.928452 339.434 1.37117 339.511 2.16806Z" fill="#70A540"/>
<path d="M526.723 37.1728C525.132 53.7419 512.042 53.3133 509.543 55.9247C509.285 56.1943 509.369 56.6027 509.617 56.8813L519.082 67.5114C519.359 67.8214 519.797 67.9279 520.189 67.7897C523.444 66.6402 527.648 65.6304 532.411 59.9233C536.4 55.1429 537.75 52.5768 538.699 44.6138C538.742 44.2578 538.588 43.904 538.299 43.692L528.364 36.4066C527.718 35.9332 526.799 36.3759 526.723 37.1728Z" fill="#70A540"/>
<path d="M357.032 72.4611C366.459 77.2187 372.434 86.5675 371.778 95.4649C371.76 95.721 371.636 95.9573 371.442 96.1254L362.981 103.457C362.334 104.018 361.319 103.558 361.261 102.703C361.027 99.2668 360.051 95.6489 356.486 90.3875C353.377 85.7972 348.273 84.2212 344.763 82.7492C344.081 82.4631 343.996 81.567 344.587 81.123L356.001 72.5571C356.299 72.3333 356.699 72.2931 357.032 72.4611Z" fill="#49A0F9"/>
<path d="M69.4155 317.244C63.291 326.069 52.7368 335.289 38.1682 331.052C37.7499 330.931 37.4628 330.542 37.4628 330.106L37.4629 314.905C37.4629 314.292 38.0092 313.826 38.6093 313.953C42.6313 314.804 48.0662 316.738 54.4121 313.738C58.9789 311.579 64.4379 306.624 67.6177 303.122C68.2699 302.404 69.5903 302.869 69.5903 303.839L69.5903 316.681C69.5903 316.883 69.5305 317.078 69.4155 317.244Z" fill="#C7C2FE"/>
<path d="M796.672 352.179C802.796 361.004 813.351 370.225 827.919 365.988C828.337 365.866 828.625 365.477 828.625 365.042L828.624 349.841C828.624 349.227 828.078 348.761 827.478 348.888C823.456 349.739 818.021 351.674 811.675 348.674C807.109 346.515 801.65 341.559 798.47 338.058C797.818 337.34 796.497 337.804 796.497 338.774L796.497 351.616C796.497 351.818 796.557 352.014 796.672 352.179Z" fill="#C7C2FE"/>
<path d="M3.21713 236.342C9.30996 227.629 16.0137 225.604 30.6968 230.216C30.8932 230.278 31.07 230.401 31.1946 230.565L36.952 238.135C37.4968 238.851 36.9017 239.824 36.0208 239.64L35.9412 239.623C31.5966 238.716 25.2863 237.398 19.5525 240.108C14.7703 242.369 9.72703 249.144 6.87405 253.15C6.34872 253.887 5.20729 253.6 5.09017 252.702L3.04692 237.038C3.01508 236.794 3.07604 236.544 3.21713 236.342Z" fill="#70A540"/>
<path d="M508.526 107.58C499.156 112.385 493.067 123.151 493.66 132.059C493.681 132.379 493.865 132.663 494.142 132.825L504.834 139.093C505.501 139.484 506.334 139.003 506.343 138.231C506.38 134.786 506.774 131.501 510.481 126.029C513.592 121.436 516.64 119.712 519.616 118.201C520.248 117.879 520.355 117.023 519.818 116.559L509.609 107.718C509.309 107.457 508.881 107.398 508.526 107.58Z" fill="#49A0F9"/>
<path d="M753.483 113.871C746.136 119.336 739.775 124.601 739.386 131.4C739.364 131.799 739.606 132.162 739.974 132.319L754.277 138.44C754.937 138.722 755.667 138.237 755.705 137.521C755.876 134.309 756.782 132.135 760.547 126.578C763.272 122.554 767.11 119.879 770.284 118.068C771.127 117.587 770.912 116.285 769.954 116.135L754.233 113.685C753.968 113.644 753.697 113.711 753.483 113.871Z" fill="#FB7BCA"/>
<path d="M113.806 79.7262C121.152 85.1915 127.514 90.4561 127.902 97.255C127.925 97.6546 127.682 98.0167 127.315 98.1742L113.012 104.295C112.352 104.577 111.622 104.092 111.583 103.376C111.412 100.164 110.507 97.9904 106.742 92.4329C104.016 88.4094 100.178 85.7345 97.0042 83.923C96.162 83.4424 96.3763 82.14 97.3344 81.9906L113.056 79.5405C113.32 79.4993 113.591 79.5663 113.806 79.7262Z" fill="#FB7BCA"/>
<path d="M858.953 269.114C850.256 260.453 844.58 263.789 837.66 264.775C837.423 264.808 837.204 264.922 837.045 265.099L829.017 274C828.395 274.689 828.955 275.723 829.867 275.55C834.697 274.639 842.364 273.146 848.036 276.007C852.356 278.186 855.336 282.192 857.463 285.372C858.01 286.189 859.247 285.817 859.247 284.834L859.247 269.818C859.247 269.556 859.139 269.299 858.953 269.114Z" fill="#70A540"/>
<path d="M168.447 301.142C154.16 303.853 147.743 309.692 146.386 316.292C146.265 316.879 146.733 317.404 147.332 317.404L163.547 317.404C163.88 317.404 164.193 317.236 164.378 316.959C166.378 313.964 166.254 313.986 170.181 311.02C173.734 308.336 178.347 308.156 182.739 308.291C183.85 308.325 184.129 306.925 183.09 306.531L168.987 301.188C168.816 301.124 168.627 301.107 168.447 301.142Z" fill="#B850FF"/>
<path d="M698.243 336.171C712.53 338.883 718.947 344.722 720.305 351.322C720.426 351.909 719.958 352.434 719.358 352.434L703.143 352.434C702.81 352.434 702.497 352.266 702.312 351.989C700.312 348.994 700.437 349.016 696.51 346.05C692.956 343.365 688.344 343.185 683.952 343.321C682.841 343.355 682.561 341.955 683.601 341.561L697.703 336.218C697.874 336.153 698.063 336.137 698.243 336.171Z" fill="#C775FF"/>
</svg>
