<svg width="269" height="323" viewBox="0 0 269 323" fill="none" xmlns="http://www.w3.org/2000/svg">
<path d="M80.2698 216.071C79.2137 214.69 80.301 212.712 82.033 212.864L94.0026 213.912C94.871 213.988 95.6887 213.493 96.0236 212.688L100.64 201.595C101.308 199.99 103.564 199.942 104.299 201.518L109.376 212.408C109.744 213.198 110.582 213.659 111.446 213.547L123.362 211.998C125.086 211.774 126.255 213.704 125.258 215.128L118.365 224.97C117.865 225.684 117.885 226.64 118.414 227.332L125.713 236.877C126.77 238.258 125.682 240.236 123.95 240.084L111.981 239.036C111.112 238.96 110.295 239.455 109.96 240.26L105.343 251.353C104.675 252.958 102.419 253.006 101.684 251.43L96.6073 240.54C96.239 239.749 95.4013 239.289 94.5368 239.401L82.6216 240.95C80.8975 241.174 79.7282 239.244 80.7256 237.82L87.6183 227.978C88.1184 227.264 88.0983 226.308 87.5688 225.616L80.2698 216.071Z" fill="#FEA53D"/>
<mask id="mask0_5_72" style="mask-type:alpha" maskUnits="userSpaceOnUse" x="79" y="200" width="48" height="53">
<path d="M80.2698 216.071C79.2137 214.69 80.301 212.712 82.033 212.864L94.0026 213.912C94.871 213.988 95.6887 213.493 96.0236 212.688L100.64 201.595C101.308 199.99 103.564 199.942 104.299 201.518L109.376 212.408C109.744 213.198 110.582 213.659 111.446 213.547L123.362 211.998C125.086 211.774 126.255 213.704 125.258 215.128L118.365 224.97C117.865 225.684 117.885 226.64 118.414 227.332L125.713 236.877C126.77 238.258 125.682 240.236 123.95 240.084L111.981 239.036C111.112 238.96 110.295 239.455 109.96 240.26L105.343 251.353C104.675 252.958 102.419 253.006 101.684 251.43L96.6073 240.54C96.239 239.749 95.4013 239.289 94.5368 239.401L82.6216 240.95C80.8975 241.174 79.7282 239.244 80.7256 237.82L87.6183 227.978C88.1184 227.264 88.0983 226.308 87.5688 225.616L80.2698 216.071Z" fill="#FEA53D"/>
</mask>
<g mask="url(#mask0_5_72)">
<circle cx="122.555" cy="214.906" r="26.8373" transform="rotate(-4.12946 122.555 214.906)" fill="#FFC241"/>
<circle cx="121.542" cy="215.792" r="11.2602" transform="rotate(2.87411 121.542 215.792)" fill="#FEF256"/>
</g>
<path d="M61.0068 169.278C75.9233 175.371 84.7629 185.101 91.4459 195.108C92.0459 196.007 93.3595 195.499 93.1012 194.45C88.9346 177.528 75.2499 161.306 67.368 155.26C60.5413 150.023 55.7793 154.716 54.2102 157.781C54.1856 157.829 54.1656 157.879 54.1499 157.931C51.9551 165.129 57.7664 167.955 61.0068 169.278Z" fill="#FFC241"/>
<path d="M26.2793 209.482C43.7744 204.41 58.3995 206.929 71.3002 211.152C72.327 211.488 73.0494 210.268 72.2023 209.597C56.845 197.44 33.3143 192.646 22.1318 192.82C12.5283 192.97 11.6213 200.383 12.3756 204.147C12.3862 204.199 12.4019 204.251 12.4215 204.302C15.4862 212.125 22.528 210.57 26.2793 209.482Z" fill="#FEA53D"/>
<path d="M29.1016 256.528C41.6546 243.329 55.5551 238.131 68.8256 235.276C69.8819 235.048 69.8908 233.63 68.8211 233.478C49.4296 230.72 26.6905 238.441 17.1206 244.229C8.90198 249.199 11.8552 256.058 14.404 258.928C14.4397 258.969 14.4795 259.006 14.5217 259.039C21.1122 264.251 26.41 259.358 29.1016 256.528Z" fill="#FEA53D"/>
<path d="M66.8643 299.507C68.694 281.384 76.4927 268.758 85.2287 258.368C85.924 257.542 85.0621 256.416 84.1236 256.951C67.1104 266.656 53.8742 286.693 49.8591 297.131C46.4109 306.096 52.9483 309.706 56.7214 310.412C56.7744 310.422 56.8285 310.427 56.8824 310.427C65.2842 310.506 66.4719 303.393 66.8643 299.507Z" fill="#FEA53D"/>
<path d="M142.313 297.654C140.483 279.531 132.684 266.905 123.948 256.515C123.253 255.688 124.115 254.563 125.053 255.098C142.067 264.803 155.303 284.84 159.318 295.278C162.766 304.243 156.229 307.853 152.456 308.559C152.403 308.569 152.349 308.574 152.295 308.574C143.893 308.653 142.705 301.54 142.313 297.654Z" fill="#FFC241"/>
<path d="M187.762 260.413C171.686 244.112 154.066 238.116 137.362 234.954C136.301 234.753 136.261 233.319 137.324 233.13C161.334 228.853 190.145 238.009 202.224 245.018C212.457 250.956 208.955 259.472 205.881 263.052C205.846 263.092 205.807 263.13 205.766 263.164C197.769 269.741 191.138 263.836 187.762 260.413Z" fill="#FEF256"/>
<path d="M182.869 207.862C164.048 203.205 148.621 206.551 135.103 211.609C134.091 211.987 133.317 210.794 134.134 210.086C149.844 196.47 174.676 190.364 186.553 190.078C196.713 189.834 197.979 197.636 197.338 201.644C197.33 201.697 197.316 201.75 197.299 201.801C194.389 210.202 186.879 208.854 182.869 207.862Z" fill="#FEF256"/>
<path d="M152.948 169.397C136.746 175.845 127.143 186.323 119.854 197.093C119.248 197.988 117.933 197.468 118.194 196.42C122.729 178.187 137.695 160.747 146.26 154.298C153.638 148.744 158.702 153.832 160.353 157.135C160.377 157.183 160.396 157.234 160.411 157.286C162.701 165.032 156.438 168.008 152.948 169.397Z" fill="#FFC241"/>
<mask id="mask1_5_72" style="mask-type:alpha" maskUnits="userSpaceOnUse" x="118" y="151" width="43" height="47">
<path d="M152.948 169.397C136.746 175.845 127.143 186.323 119.854 197.093C119.248 197.988 117.933 197.468 118.194 196.42C122.729 178.187 137.695 160.747 146.26 154.298C153.638 148.744 158.702 153.832 160.353 157.135C160.377 157.183 160.396 157.234 160.411 157.286C162.701 165.032 156.438 168.008 152.948 169.397Z" fill="#FFC241"/>
</mask>
<g mask="url(#mask1_5_72)">
<circle cx="160.98" cy="159.783" r="13.1217" fill="#FEF256"/>
</g>
<path d="M128.893 77.7068C127.837 76.3257 128.925 74.3478 130.657 74.4995L142.626 75.5478C143.495 75.6239 144.312 75.1287 144.647 74.3238L149.263 63.2305C149.931 61.6253 152.188 61.578 152.923 63.1538L158 74.044C158.368 74.8341 159.206 75.2946 160.07 75.1823L171.985 73.6333C173.709 73.4092 174.879 75.3399 173.881 76.764L166.989 86.6058C166.489 87.3199 166.509 88.2756 167.038 88.968L174.337 98.5125C175.393 99.8935 174.306 101.871 172.574 101.72L160.604 100.671C159.736 100.595 158.918 101.091 158.583 101.895L153.967 112.989C153.299 114.594 151.042 114.641 150.308 113.065L145.231 102.175C144.863 101.385 144.025 100.925 143.16 101.037L131.245 102.586C129.521 102.81 128.352 100.879 129.349 99.4553L136.242 89.6134C136.742 88.8994 136.722 87.9437 136.192 87.2512L128.893 77.7068Z" fill="#27A6FF"/>
<mask id="mask2_5_72" style="mask-type:alpha" maskUnits="userSpaceOnUse" x="128" y="61" width="47" height="54">
<path d="M128.893 77.7067C127.837 76.3257 128.925 74.3477 130.657 74.4994L142.626 75.5478C143.495 75.6238 144.312 75.1286 144.647 74.3238L149.263 63.2304C149.931 61.6253 152.188 61.578 152.923 63.1537L158 74.0439C158.368 74.8341 159.206 75.2946 160.07 75.1822L171.985 73.6333C173.709 73.4092 174.879 75.3398 173.881 76.7639L166.989 86.6057C166.489 87.3198 166.509 88.2755 167.038 88.968L174.337 98.5124C175.393 99.8934 174.306 101.871 172.574 101.72L160.604 100.671C159.736 100.595 158.918 101.091 158.583 101.895L153.967 112.989C153.299 114.594 151.042 114.641 150.308 113.065L145.231 102.175C144.863 101.385 144.025 100.925 143.16 101.037L131.245 102.586C129.521 102.81 128.352 100.879 129.349 99.4552L136.242 89.6134C136.742 88.8993 136.722 87.9436 136.192 87.2511L128.893 77.7067Z" fill="#27A6FF"/>
</mask>
<g mask="url(#mask2_5_72)">
<circle cx="171.179" cy="76.5412" r="26.8373" transform="rotate(-4.12946 171.179 76.5412)" fill="#00C0FC"/>
<circle cx="170.165" cy="77.4281" r="11.2602" transform="rotate(2.87411 170.165 77.4281)" fill="#6AD9FB"/>
</g>
<path d="M105.678 30.9203C120.594 37.0131 129.434 46.7432 136.117 56.7504C136.717 57.6489 138.031 57.1412 137.772 56.0921C133.606 39.1697 119.921 22.9484 112.039 16.902C105.212 11.665 100.45 16.3576 98.8813 19.4228C98.8568 19.4707 98.8368 19.5213 98.8211 19.5728C96.6263 26.7708 102.438 29.5967 105.678 30.9203Z" fill="#00C0FC"/>
<path d="M74.9504 71.1245C92.4456 66.0525 107.071 68.5708 119.971 72.7939C120.998 73.1301 121.721 71.91 120.873 71.2394C105.516 59.0825 81.9854 54.2883 70.8029 54.4625C61.1995 54.6122 60.2924 62.0248 61.0468 65.7887C61.0573 65.8415 61.073 65.8935 61.0927 65.9436C64.1573 73.767 71.1992 72.212 74.9504 71.1245Z" fill="#27A6FF"/>
<path d="M77.7727 121.17C90.3258 107.971 104.226 102.774 117.497 99.9178C118.553 99.6905 118.562 98.2726 117.492 98.1205C98.1007 95.3625 75.3617 103.083 65.7917 108.871C57.5731 113.841 60.5263 120.7 63.0751 123.571C63.1109 123.611 63.1506 123.648 63.1929 123.681C69.7833 128.893 75.0812 124.001 77.7727 121.17Z" fill="#27A6FF"/>
<path d="M116.535 161.15C118.365 143.026 126.164 130.4 134.9 120.011C135.595 119.184 134.733 118.058 133.795 118.593C116.782 128.298 103.545 148.335 99.5302 158.774C96.0821 167.738 102.619 171.348 106.393 172.054C106.446 172.064 106.5 172.069 106.553 172.069C114.955 172.149 116.143 165.036 116.535 161.15Z" fill="#27A6FF"/>
<path d="M187.984 160.297C186.154 142.173 178.355 129.547 169.619 119.158C168.924 118.331 169.786 117.205 170.725 117.74C187.738 127.445 200.974 147.482 204.989 157.921C208.437 166.885 201.9 170.495 198.127 171.201C198.074 171.211 198.02 171.216 197.966 171.216C189.564 171.296 188.376 164.183 187.984 160.297Z" fill="#00C0FC"/>
<path d="M235.568 125.055C219.492 108.754 201.872 102.758 185.168 99.5958C184.106 99.3948 184.066 97.9614 185.13 97.7719C209.14 93.4952 237.951 102.651 250.03 109.66C260.262 115.598 256.761 124.114 253.687 127.694C253.652 127.734 253.613 127.772 253.571 127.806C245.575 134.383 238.943 128.478 235.568 125.055Z" fill="#6AD9FB"/>
<path d="M231.54 69.5037C212.719 64.8476 197.293 68.1933 183.774 73.2507C182.763 73.6293 181.988 72.4359 182.805 71.7282C198.515 58.1117 223.347 52.0065 235.224 51.7206C245.384 51.476 246.651 59.278 246.009 63.2861C246.001 63.3393 245.987 63.3919 245.97 63.4428C243.06 71.8444 235.551 70.496 231.54 69.5037Z" fill="#6AD9FB"/>
<path d="M200.619 29.039C184.417 35.4868 174.814 45.9655 167.525 56.7353C166.92 57.6301 165.604 57.1104 165.865 56.0619C170.4 37.8293 185.366 20.3891 193.932 13.9405C201.309 8.38619 206.373 13.4742 208.024 16.7771C208.048 16.8253 208.067 16.876 208.083 16.9277C210.372 24.6743 204.109 27.6503 200.619 29.039Z" fill="#00C0FC"/>
<mask id="mask3_5_72" style="mask-type:alpha" maskUnits="userSpaceOnUse" x="165" y="11" width="44" height="47">
<path d="M200.619 29.039C184.417 35.4868 174.814 45.9655 167.525 56.7353C166.92 57.6301 165.604 57.1104 165.865 56.0619C170.4 37.8293 185.366 20.3891 193.932 13.9405C201.309 8.38619 206.373 13.4742 208.024 16.7771C208.048 16.8253 208.067 16.876 208.083 16.9277C210.372 24.6743 204.109 27.6503 200.619 29.039Z" fill="#00C0FC"/>
</mask>
<g mask="url(#mask3_5_72)">
<circle cx="208.651" cy="19.4252" r="13.1217" fill="#6AD9FB"/>
</g>
<path d="M23.9577 120.043C26.2617 122.415 26.2379 126.195 23.9042 128.536C21.5172 130.931 17.6314 130.905 15.2748 128.48L8.52238 121.53C6.21838 119.159 6.24224 115.379 8.57596 113.038C10.9629 110.643 14.8488 110.669 17.2053 113.094L23.9577 120.043Z" fill="#FE5B9F"/>
<path d="M15.1308 136.49C17.5026 134.08 21.3886 134.08 23.7603 136.49C26.0792 138.846 26.0792 142.627 23.7603 144.983L16.9642 151.888C14.5924 154.298 10.7064 154.298 8.33465 151.888C6.01575 149.532 6.01575 145.751 8.33465 143.395L15.1308 136.49Z" fill="#FE5B9F"/>
<path d="M47.889 143.259C50.2238 145.599 50.2493 149.379 47.9464 151.752C45.5909 154.178 41.7051 154.205 39.3171 151.812L32.4745 144.954C30.1397 142.614 30.1142 138.833 32.4171 136.461C34.7726 134.035 38.6585 134.008 41.0464 136.401L47.889 143.259Z" fill="#FD77A6"/>
<path d="M39.2806 112.656C41.6524 110.246 45.5383 110.246 47.9101 112.656C50.229 115.012 50.229 118.793 47.9101 121.149L41.1139 128.055C38.7422 130.465 34.8562 130.465 32.4844 128.055C30.1655 125.699 30.1655 121.918 32.4844 119.562L39.2806 112.656Z" fill="#FD77A6"/>
<path d="M213.165 190.128C215.277 192.302 215.255 195.768 213.116 197.914C210.928 200.108 207.366 200.085 205.206 197.862L199.016 191.492C196.904 189.318 196.926 185.853 199.065 183.707C201.253 181.512 204.815 181.535 206.976 183.758L213.165 190.128Z" fill="#775BBC"/>
<path d="M205.074 205.204C207.248 202.995 210.81 202.995 212.984 205.204C215.11 207.364 215.11 210.83 212.984 212.99L206.755 219.32C204.58 221.529 201.018 221.529 198.844 219.32C196.718 217.16 196.718 213.694 198.844 211.534L205.074 205.204Z" fill="#775BBC"/>
<path d="M235.102 211.409C237.243 213.554 237.266 217.02 235.155 219.194C232.996 221.419 229.434 221.443 227.245 219.25L220.972 212.963C218.832 210.818 218.809 207.353 220.92 205.178C223.079 202.954 226.641 202.929 228.83 205.123L235.102 211.409Z" fill="#856BD6"/>
<path d="M227.211 183.357C229.386 181.148 232.948 181.148 235.122 183.357C237.247 185.517 237.247 188.983 235.122 191.142L228.892 197.472C226.718 199.681 223.156 199.681 220.982 197.472C218.856 195.312 218.856 191.847 220.982 189.687L227.211 183.357Z" fill="#856BD6"/>
</svg>
